<!DOCTYPE svg PUBLIC "-//W3C//DTD SVG 1.1//EN" "http://www.w3.org/Graphics/SVG/1.1/DTD/svg11.dtd">
<!-- Uploaded to: SVG Repo, www.svgrepo.com, Transformed by: SVG Repo Mixer Tools -->
<svg width="64px" height="64px" viewBox="0 0 48 48" xmlns="http://www.w3.org/2000/svg" fill="#ffffff" stroke="#ffffff" stroke-width="0.00048000000000000007" transform="matrix(-1, 0, 0, 1, 0, 0)">
<g id="SVGRepo_bgCarrier" stroke-width="0"/>
<g id="SVGRepo_tracerCarrier" stroke-linecap="round" stroke-linejoin="round"/>
<g id="SVGRepo_iconCarrier"> <title>data-storage-multiple-solid</title> <g id="Layer_2" data-name="Layer 2"> <g id="invisible_box" data-name="invisible box"> <rect width="48" height="48" fill="none"/> </g> <g id="icons_Q2" data-name="icons Q2"> <path d="M2,32V42a2,2,0,0,0,2,2H44a2,2,0,0,0,2-2V32Zm30,6a2,2,0,1,1,2-2A2,2,0,0,1,32,38Zm6,0a2,2,0,1,1,2-2A2,2,0,0,1,38,38ZM44,4H4A2,2,0,0,0,2,6V16H46V6A2,2,0,0,0,44,4ZM32,14a2,2,0,1,1,2-2A2,2,0,0,1,32,14Zm6,0a2,2,0,1,1,2-2A2,2,0,0,1,38,14ZM2,20v8H46V20Zm30,6a2,2,0,1,1,2-2A2,2,0,0,1,32,26Zm6,0a2,2,0,1,1,2-2A2,2,0,0,1,38,26Z"/> </g> </g> </g>
</svg>