<!DOCTYPE svg PUBLIC "-//W3C//DTD SVG 1.1//EN" "http://www.w3.org/Graphics/SVG/1.1/DTD/svg11.dtd">
<!-- Uploaded to: SVG Repo, www.svgrepo.com, Transformed by: SVG Repo Mixer Tools -->
<svg fill="#121212" width="78px" height="78px" viewBox="-4.8 -4.8 33.60 33.60" xmlns="http://www.w3.org/2000/svg">
<g id="SVGRepo_bgCarrier" stroke-width="0">
<rect x="-4.8" y="-4.8" width="33.60" height="33.60" rx="16.8" fill="#757575" strokewidth="0"/>
</g>
<g id="SVGRepo_tracerCarrier" stroke-linecap="round" stroke-linejoin="round"/>
<g id="SVGRepo_iconCarrier">
<path d="M5,21H19a2.006,2.006,0,0,0,2-2V9a2.006,2.006,0,0,0-2-2H17V5a2,2,0,0,0-2-2H9A2,2,0,0,0,7,5V7H5A2.006,2.006,0,0,0,3,9V19A2.006,2.006,0,0,0,5,21ZM9,5.5A.5.5,0,0,1,9.5,5h5a.5.5,0,0,1,.5.5V7H9Z"/>
</g>
</svg>